<svg width="48" height="47" viewBox="0 0 48 47" fill="none" xmlns="http://www.w3.org/2000/svg">
<g clip-path="url(#clip0_3_614)">
<path fill-rule="evenodd" clip-rule="evenodd" d="M24 0.150879C37.2548 0.150879 48 10.6685 48 23.6426C48 35.3679 39.2235 45.0865 27.75 46.8489V30.4331H33.3422L34.4062 23.6426H34.2908L34.3021 23.5701H27.75V19.2359C27.75 17.3781 28.6798 15.5673 31.6612 15.5673H34.6875V9.78614C34.6875 9.78614 34.6515 9.78013 34.5839 9.76949V9.66112C34.5839 9.66112 31.832 9.20056 29.201 9.20056C23.7082 9.20056 20.1181 12.465 20.1181 18.375V23.5701H14.0125V30.3864H14.1562V30.4331H20.1181V46.8282C8.70928 45.012 0 35.323 0 23.6426C0 10.6685 10.7452 0.150879 24 0.150879Z" fill="white"/>
</g>
<defs>
<clipPath id="clip0_3_614">
<rect width="48" height="47" fill="white"/>
</clipPath>
</defs>
</svg>
